<svg width="25" height="25" viewBox="0 0 25 25" fill="none" xmlns="http://www.w3.org/2000/svg">
<path d="M22.5625 4.42709C22.3552 4.245 22.0841 4.1526 21.8087 4.17018C21.5334 4.18776 21.2762 4.31387 21.0938 4.52084L19.1458 6.76042L18.4896 6.02084C18.3059 5.81363 18.0474 5.6879 17.7709 5.6713C17.4945 5.65469 17.2228 5.74858 17.0156 5.93229C16.8084 6.11601 16.6827 6.37451 16.6661 6.65093C16.6495 6.92736 16.7434 7.19905 16.9271 7.40625L18.375 9.03125C18.4736 9.14047 18.5941 9.22757 18.7288 9.28682C18.8635 9.34607 19.0091 9.37612 19.1562 9.375C19.3024 9.37335 19.4466 9.34096 19.5794 9.27994C19.7122 9.21892 19.8306 9.13064 19.9271 9.02083L22.6458 5.89583C22.8292 5.68985 22.9234 5.41956 22.9078 5.14423C22.8921 4.86891 22.768 4.61101 22.5625 4.42709ZM10.4167 11.4583C11.2408 11.4583 12.0463 11.214 12.7315 10.7561C13.4167 10.2983 13.9508 9.64754 14.2662 8.88618C14.5815 8.12482 14.664 7.28705 14.5033 6.47879C14.3425 5.67054 13.9457 4.92811 13.3629 4.34539C12.7802 3.76267 12.0378 3.36583 11.2295 3.20506C10.4213 3.04429 9.58351 3.12681 8.82215 3.44217C8.06079 3.75754 7.41005 4.29159 6.95221 4.97679C6.49437 5.662 6.25 6.46758 6.25 7.29167C6.25 8.39674 6.68899 9.45655 7.47039 10.2379C8.25179 11.0193 9.3116 11.4583 10.4167 11.4583ZM10.4167 5.20833C10.8287 5.20833 11.2315 5.33052 11.5741 5.55944C11.9167 5.78836 12.1837 6.11373 12.3414 6.49441C12.4991 6.87509 12.5404 7.29398 12.46 7.69811C12.3796 8.10223 12.1812 8.47345 11.8898 8.76481C11.5984 9.05617 11.2272 9.25459 10.8231 9.33497C10.419 9.41536 10.0001 9.3741 9.61941 9.21642C9.23873 9.05873 8.91336 8.79171 8.68444 8.44911C8.45552 8.1065 8.33333 7.70371 8.33333 7.29167C8.33333 6.73913 8.55283 6.20923 8.94353 5.81853C9.33423 5.42783 9.86413 5.20833 10.4167 5.20833ZM10.4167 13.5417C8.4828 13.5417 6.62813 14.3099 5.26068 15.6773C3.89323 17.0448 3.125 18.8995 3.125 20.8333C3.125 21.1096 3.23475 21.3746 3.4301 21.5699C3.62545 21.7653 3.8904 21.875 4.16667 21.875C4.44293 21.875 4.70789 21.7653 4.90324 21.5699C5.09859 21.3746 5.20833 21.1096 5.20833 20.8333C5.20833 19.452 5.75707 18.1272 6.73382 17.1505C7.71057 16.1737 9.03533 15.625 10.4167 15.625C11.798 15.625 13.1228 16.1737 14.0995 17.1505C15.0763 18.1272 15.625 19.452 15.625 20.8333C15.625 21.1096 15.7347 21.3746 15.9301 21.5699C16.1254 21.7653 16.3904 21.875 16.6667 21.875C16.9429 21.875 17.2079 21.7653 17.4032 21.5699C17.5986 21.3746 17.7083 21.1096 17.7083 20.8333C17.7083 18.8995 16.9401 17.0448 15.5727 15.6773C14.2052 14.3099 12.3505 13.5417 10.4167 13.5417Z" fill="#ABB9E8"/>
</svg>
