<svg width="25" height="25" viewBox="0 0 25 25" fill="none" xmlns="http://www.w3.org/2000/svg">
<path d="M21.0938 10C21.8822 10.454 22.5214 11.1275 22.9336 11.9386C23.3457 12.7496 23.513 13.663 23.4149 14.5674C23.3168 15.4719 22.9577 16.3282 22.3813 17.0321C21.8049 17.7359 21.0362 18.2568 20.1688 18.5312C19.8623 19.9224 19.0899 21.1671 17.9794 22.0593C16.8689 22.9515 15.4871 23.4378 14.0626 23.4375H11.7188C11.5116 23.4375 11.3129 23.3552 11.1664 23.2087C11.0199 23.0622 10.9376 22.8635 10.9376 22.6562C10.9376 22.4491 11.0199 22.2503 11.1664 22.1038C11.3129 21.9573 11.5116 21.875 11.7188 21.875H14.0626C15.0323 21.8753 15.9783 21.5749 16.7702 21.0153C17.5621 20.4556 18.161 19.6642 18.4845 18.75H17.9688C17.7616 18.75 17.5629 18.6677 17.4164 18.5212C17.2699 18.3747 17.1876 18.176 17.1876 17.9688V10.1562C17.1876 9.94905 17.2699 9.75034 17.4164 9.60382C17.5629 9.45731 17.7616 9.375 17.9688 9.375H18.7501C19.0032 9.375 19.2517 9.39531 19.4954 9.43437C19.3195 7.70139 18.5066 6.09539 17.2142 4.92753C15.9219 3.75968 14.242 3.11311 12.5001 3.11311C10.7582 3.11311 9.07833 3.75968 7.78595 4.92753C6.49356 6.09539 5.68067 7.70139 5.50478 9.43437C5.75126 9.3949 6.00048 9.37504 6.25009 9.375H7.03134C7.23854 9.375 7.43726 9.45731 7.58377 9.60382C7.73028 9.75034 7.81259 9.94905 7.81259 10.1562V17.9688C7.81259 18.176 7.73028 18.3747 7.58377 18.5212C7.43726 18.6677 7.23854 18.75 7.03134 18.75H6.25009C5.21725 18.7512 4.21295 18.4111 3.39322 17.7828C2.57349 17.1545 1.98423 16.273 1.71699 15.2753C1.44976 14.2777 1.51951 13.2197 1.91542 12.2657C2.31133 11.3118 3.01121 10.5153 3.90634 10C3.90634 7.7208 4.81175 5.53494 6.4234 3.9233C8.03504 2.31166 10.2209 1.40625 12.5001 1.40625C14.7793 1.40625 16.9652 2.31166 18.5768 3.9233C20.1884 5.53494 21.0938 7.7208 21.0938 10ZM6.25009 10.9375C5.42129 10.9375 4.62644 11.2667 4.04039 11.8528C3.45433 12.4388 3.12509 13.2337 3.12509 14.0625C3.12509 14.8913 3.45433 15.6862 4.04039 16.2722C4.62644 16.8583 5.42129 17.1875 6.25009 17.1875V10.9375ZM21.8751 14.0625C21.8751 13.2337 21.5459 12.4388 20.9598 11.8528C20.3738 11.2667 19.5789 10.9375 18.7501 10.9375V17.1875C19.5789 17.1875 20.3738 16.8583 20.9598 16.2722C21.5459 15.6862 21.8751 14.8913 21.8751 14.0625Z" fill="#ABB9E8"/>
</svg>
