<svg width="25" height="25" viewBox="0 0 25 25" fill="none" xmlns="http://www.w3.org/2000/svg">
<path d="M4.16675 8.33332V6.24999C4.16675 5.69746 4.38624 5.16755 4.77694 4.77685C5.16764 4.38615 5.69755 4.16666 6.25008 4.16666H8.33341M4.16675 16.6667V18.75C4.16675 19.3025 4.38624 19.8324 4.77694 20.2231C5.16764 20.6138 5.69755 20.8333 6.25008 20.8333H8.33341M16.6667 4.16666H18.7501C19.3026 4.16666 19.8325 4.38615 20.2232 4.77685C20.6139 5.16755 20.8334 5.69746 20.8334 6.24999V8.33332M16.6667 20.8333H18.7501C19.3026 20.8333 19.8325 20.6138 20.2232 20.2231C20.6139 19.8324 20.8334 19.3025 20.8334 18.75V16.6667M12.5001 11.4583V11.4687M12.5001 18.75L8.85425 13.5417C8.50328 12.9073 8.32389 12.1924 8.3338 11.4675C8.34372 10.7426 8.5426 10.0328 8.91079 9.40833C9.27898 8.78382 9.80374 8.26619 10.4332 7.90658C11.0627 7.54696 11.7751 7.35781 12.5001 7.35781C13.225 7.35781 13.9375 7.54696 14.5669 7.90658C15.1964 8.26619 15.7212 8.78382 16.0894 9.40833C16.4576 10.0328 16.6564 10.7426 16.6664 11.4675C16.6763 12.1924 16.4969 12.9073 16.1459 13.5417L12.5001 18.75Z" stroke="#ABB9E8" stroke-width="2" stroke-linecap="round" stroke-linejoin="round"/>
</svg>
