<svg width="25" height="25" viewBox="0 0 25 25" fill="none" xmlns="http://www.w3.org/2000/svg">
<path d="M7.73429 17.2656H9.92179L15.5989 11.5885L13.4114 9.40104L7.73429 15.0781V17.2656ZM16.2239 10.9635L16.953 10.2344C17.1614 10.026 17.2655 9.78299 17.2655 9.50521C17.2655 9.22743 17.1614 8.98438 16.953 8.77604L16.2239 8.04688C16.0155 7.83854 15.7725 7.73438 15.4947 7.73438C15.2169 7.73438 14.9739 7.83854 14.7655 8.04688L14.0364 8.77604L16.2239 10.9635ZM12.4999 22.9167C11.0589 22.9167 9.70478 22.6431 8.43742 22.0958C7.17006 21.5486 6.06763 20.8066 5.13013 19.8698C4.19263 18.9323 3.45061 17.8299 2.90409 16.5625C2.35756 15.2951 2.08395 13.941 2.08325 12.5C2.08325 11.059 2.35686 9.70486 2.90409 8.4375C3.45131 7.17014 4.19332 6.06771 5.13013 5.13021C6.06763 4.19271 7.17006 3.4507 8.43742 2.90417C9.70478 2.35764 11.0589 2.08403 12.4999 2.08334C13.9409 2.08334 15.2951 2.35695 16.5624 2.90417C17.8298 3.45139 18.9322 4.19341 19.8697 5.13021C20.8072 6.06771 21.5496 7.17014 22.0968 8.4375C22.644 9.70486 22.9173 11.059 22.9166 12.5C22.9166 13.941 22.643 15.2951 22.0957 16.5625C21.5485 17.8299 20.8065 18.9323 19.8697 19.8698C18.9322 20.8073 17.8298 21.5497 16.5624 22.0969C15.2951 22.6441 13.9409 22.9174 12.4999 22.9167ZM12.4999 20.8333C14.8263 20.8333 16.7968 20.026 18.4114 18.4115C20.026 16.7969 20.8332 14.8264 20.8332 12.5C20.8332 10.1736 20.026 8.20313 18.4114 6.58854C16.7968 4.97396 14.8263 4.16667 12.4999 4.16667C10.1735 4.16667 8.20304 4.97396 6.58846 6.58854C4.97388 8.20313 4.16658 10.1736 4.16658 12.5C4.16658 14.8264 4.97388 16.7969 6.58846 18.4115C8.20304 20.026 10.1735 20.8333 12.4999 20.8333Z" fill="#ABB9E8"/>
</svg>
