<svg width="25" height="25" viewBox="0 0 25 25" fill="none" xmlns="http://www.w3.org/2000/svg">
<path d="M12.4999 17.8929V19.6964M12.4999 8.94644V10.625M12.4999 24.0893C18.7499 24.0893 23.2142 21.875 23.2142 16.9464C23.2142 11.5893 20.5356 8.01787 15.1785 5.33929L17.2856 2.62501C17.3927 2.44692 17.4508 2.2437 17.4539 2.03594C17.4571 1.82817 17.4054 1.62326 17.3038 1.44197C17.2023 1.26067 17.0547 1.10944 16.8758 1.0036C16.697 0.897765 16.4934 0.84108 16.2856 0.839294H8.71422C8.50644 0.84108 8.30283 0.897765 8.12402 1.0036C7.94521 1.10944 7.79756 1.26067 7.69603 1.44197C7.59451 1.62326 7.54272 1.82817 7.54591 2.03594C7.5491 2.2437 7.60717 2.44692 7.71422 2.62501L9.82136 5.35715C4.46422 8.05358 1.78564 11.625 1.78564 16.9822C1.78564 21.875 6.24993 24.0893 12.4999 24.0893Z" stroke="#ABB9E8" stroke-width="1.5" stroke-linecap="round" stroke-linejoin="round"/>
<path d="M10.7143 17.0714C10.9322 17.3301 11.2064 17.5353 11.5159 17.6715C11.8255 17.8077 12.1621 17.8712 12.5 17.8571C13.0164 17.8923 13.5264 17.7259 13.9227 17.3929C14.319 17.0599 14.5707 16.5862 14.625 16.0714C14.5707 15.5566 14.319 15.0829 13.9227 14.7499C13.5264 14.4169 13.0164 14.2505 12.5 14.2857C11.9836 14.3209 11.4736 14.1545 11.0773 13.8215C10.681 13.4885 10.4293 13.0148 10.375 12.5C10.4249 11.9834 10.6754 11.507 11.0728 11.1731C11.4701 10.8392 11.9825 10.6745 12.5 10.7143C12.8319 10.694 13.1643 10.7475 13.473 10.871C13.7818 10.9945 14.0594 11.1849 14.2857 11.4286" stroke="#ABB9E8" stroke-width="1.5" stroke-linecap="round" stroke-linejoin="round"/>
</svg>
