<svg width="25" height="25" viewBox="0 0 25 25" fill="none" xmlns="http://www.w3.org/2000/svg">
<path d="M4.92502 16.8094C3.31565 15.1989 2.51044 14.3948 2.21148 13.35C1.91148 12.3052 2.16773 11.1958 2.68023 8.97812L2.97502 7.69895C3.40523 5.83228 3.62086 4.89895 4.2594 4.25937C4.89898 3.62082 5.83232 3.4052 7.69898 2.97499L8.97815 2.67916C11.1969 2.1677 12.3052 1.91145 13.35 2.21041C14.3948 2.51041 15.199 3.31562 16.8084 4.92499L18.7146 6.83124C21.5177 9.63332 22.9167 11.0333 22.9167 12.7729C22.9167 14.5135 21.5156 15.9135 18.7146 18.7146C15.9136 21.5177 14.5136 22.9167 12.7729 22.9167C11.0334 22.9167 9.63232 21.5156 6.83127 18.7146L4.92502 16.8094Z" stroke="#ABB9E8" stroke-width="1.5"/>
<path d="M16.0313 16.0313C16.6407 15.4198 16.723 14.5135 16.2147 14.0042C15.7063 13.4958 14.799 13.5781 14.1886 14.1885C13.5792 14.799 12.6719 14.8813 12.1636 14.3729C11.6553 13.8646 11.7376 12.9573 12.348 12.3479M12.348 12.3479L11.9792 11.9792M12.348 12.3479C12.6928 12.0021 13.1324 11.8271 13.5417 11.8302M16.399 16.399L16.0303 16.0302C15.6136 16.4479 15.0563 16.6188 14.5834 16.5208" stroke="#ABB9E8" stroke-width="1.5" stroke-linecap="round"/>
<path d="M10.4387 10.7221C11.2523 9.90851 11.2523 8.58941 10.4387 7.77582C9.62511 6.96223 8.30602 6.96223 7.49243 7.77582C6.67883 8.58942 6.67883 9.90851 7.49243 10.7221C8.30602 11.5357 9.62511 11.5357 10.4387 10.7221Z" stroke="#ABB9E8" stroke-width="1.5"/>
</svg>
