<svg width="25" height="25" viewBox="0 0 25 25" fill="none" xmlns="http://www.w3.org/2000/svg">
<g clip-path="url(#clip0_2111_41)">
<path d="M13.2343 7.76563C13.0149 7.98536 12.8916 8.28321 12.8916 8.59376C12.8916 8.9043 13.0149 9.20215 13.2343 9.42188L15.5312 11.7188L13.2343 14.0156C13.1192 14.1229 13.0268 14.2523 12.9628 14.396C12.8987 14.5398 12.8643 14.695 12.8615 14.8523C12.8587 15.0097 12.8877 15.166 12.9466 15.3119C13.0056 15.4578 13.0933 15.5903 13.2046 15.7016C13.3159 15.8129 13.4484 15.9006 13.5943 15.9596C13.7402 16.0185 13.8965 16.0475 14.0539 16.0447C14.2112 16.0419 14.3664 16.0075 14.5102 15.9434C14.6539 15.8794 14.7833 15.787 14.8906 15.6719L18.0156 12.5469C18.235 12.3272 18.3583 12.0293 18.3583 11.7188C18.3583 11.4082 18.235 11.1104 18.0156 10.8906L14.8906 7.76563C14.6708 7.54618 14.373 7.42291 14.0624 7.42291C13.7519 7.42291 13.454 7.54618 13.2343 7.76563ZM10.2031 9.42188C10.4101 9.19973 10.5228 8.90591 10.5174 8.60231C10.512 8.29872 10.3891 8.00905 10.1744 7.79435C9.95965 7.57964 9.66998 7.45665 9.36639 7.4513C9.06279 7.44594 8.76897 7.55863 8.54682 7.76563L5.42182 10.8906C5.20237 11.1104 5.0791 11.4082 5.0791 11.7188C5.0791 12.0293 5.20237 12.3272 5.42182 12.5469L8.54682 15.6719C8.6541 15.787 8.78348 15.8794 8.92723 15.9434C9.07098 16.0075 9.22616 16.0419 9.3835 16.0447C9.54085 16.0475 9.69715 16.0185 9.84307 15.9596C9.98899 15.9006 10.1215 15.8129 10.2328 15.7016C10.3441 15.5903 10.4318 15.4578 10.4908 15.3119C10.5497 15.166 10.5786 15.0097 10.5759 14.8523C10.5731 14.695 10.5387 14.5398 10.4746 14.396C10.4106 14.2523 10.3182 14.1229 10.2031 14.0156L7.9062 11.7188L10.2031 9.42188Z" fill="#ABB9E8"/>
<path d="M19.1343 20.7922C16.8063 22.6953 13.8359 23.6308 10.8374 23.4053C7.83896 23.1798 5.04188 21.8105 3.02469 19.5806C1.00751 17.3507 -0.0754672 14.4308 -0.000233301 11.4248C0.0750006 8.41881 1.30269 5.55673 3.4289 3.43052C5.55511 1.3043 8.41719 0.076618 11.4232 0.00138413C14.4291 -0.0738497 17.3491 1.00912 19.579 3.02631C21.8089 5.0435 23.1782 7.84058 23.4037 10.839C23.6292 13.8375 22.6937 16.8079 20.7906 19.1359L24.6562 23C24.8105 23.1432 24.9232 23.3254 24.9826 23.5274C25.042 23.7293 25.0458 23.9436 24.9937 24.1475C24.9415 24.3514 24.8354 24.5376 24.6863 24.6862C24.5373 24.8349 24.3509 24.9406 24.1468 24.9922C23.9431 25.0444 23.7291 25.0408 23.5273 24.9816C23.3255 24.9225 23.1433 24.8101 22.9999 24.6562L19.1343 20.7922ZM2.34369 11.7187C2.34366 13.5455 2.87715 15.3325 3.87864 16.8603C4.88014 18.3881 6.30603 19.5901 7.98119 20.3187C9.65683 21.0465 11.5086 21.2691 13.3089 20.959C15.1093 20.649 16.7799 19.8198 18.1156 18.5734C18.2216 18.381 18.3797 18.2223 18.5718 18.1156C19.6146 16.9986 20.3685 15.6436 20.7678 14.1686C21.1672 12.6936 21.2 11.1433 20.8633 9.65275C20.5266 8.16219 19.8307 6.77653 18.8361 5.61641C17.8415 4.45629 16.5784 3.55688 15.1567 2.99649C13.7351 2.43609 12.198 2.23171 10.6793 2.40113C9.1606 2.57055 7.70635 3.10864 6.44315 3.96855C5.17994 4.82845 4.14609 5.98411 3.43159 7.33489C2.7171 8.68568 2.34363 10.1906 2.34369 11.7187Z" fill="#ABB9E8"/>
</g>
<defs>
<clipPath id="clip0_2111_41">
<rect width="25" height="25" fill="white"/>
</clipPath>
</defs>
</svg>
