<svg width="25" height="25" viewBox="0 0 25 25" fill="none" xmlns="http://www.w3.org/2000/svg">
<path d="M15.6251 19.925C16.5136 20.183 17.4342 20.3134 18.3594 20.3125C19.8474 20.3147 21.3159 19.9754 22.6521 19.3208C22.6917 18.3872 22.4257 17.4661 21.8946 16.6972C21.3636 15.9283 20.5963 15.3535 19.7091 15.0599C18.822 14.7663 17.8633 14.7699 16.9784 15.0702C16.0934 15.3705 15.3305 15.9511 14.8053 16.724M15.6251 19.925V19.9219C15.6251 18.7625 15.3271 17.6719 14.8053 16.724M15.6251 19.925V20.0354C13.6204 21.2428 11.3236 21.8789 8.9834 21.875C6.55527 21.875 4.2834 21.2031 2.34382 20.0354L2.34277 19.9219C2.34198 18.4474 2.83195 17.0145 3.73546 15.8492C4.63897 14.684 5.90462 13.8525 7.33287 13.486C8.76111 13.1195 10.2707 13.2388 11.6237 13.8251C12.9766 14.4114 14.096 15.4312 14.8053 16.724M12.5001 6.64062C12.5001 7.57303 12.1297 8.46724 11.4704 9.12655C10.8111 9.78585 9.91684 10.1562 8.98444 10.1562C8.05204 10.1562 7.15783 9.78585 6.49852 9.12655C5.83921 8.46724 5.46882 7.57303 5.46882 6.64062C5.46882 5.70822 5.83921 4.81401 6.49852 4.1547C7.15783 3.4954 8.05204 3.125 8.98444 3.125C9.91684 3.125 10.8111 3.4954 11.4704 4.1547C12.1297 4.81401 12.5001 5.70822 12.5001 6.64062ZM21.0938 8.98437C21.0938 9.70958 20.8057 10.4051 20.2929 10.9179C19.7801 11.4307 19.0846 11.7187 18.3594 11.7187C17.6342 11.7187 16.9387 11.4307 16.4259 10.9179C15.9132 10.4051 15.6251 9.70958 15.6251 8.98437C15.6251 8.25917 15.9132 7.56367 16.4259 7.05088C16.9387 6.53808 17.6342 6.25 18.3594 6.25C19.0846 6.25 19.7801 6.53808 20.2929 7.05088C20.8057 7.56367 21.0938 8.25917 21.0938 8.98437Z" stroke="#ABB9E8" stroke-width="1.5" stroke-linecap="round" stroke-linejoin="round"/>
</svg>
